<?xml version="1.0" encoding="UTF-8"?>
<svg width="138px" height="107px" viewBox="0 0 138 107" version="1.1" xmlns="http://www.w3.org/2000/svg" xmlns:xlink="http://www.w3.org/1999/xlink">
    <!-- Generator: Sketch 41.2 (35397) - http://www.bohemiancoding.com/sketch -->
    <title>robot face</title>
    <desc>Created with Sketch.</desc>
    <defs></defs>
    <g id="robot-face" transform="translate(-31.000000, -68.000000)" fill="#4C4C4C">
        <g transform="translate(31.000000, 68.000000)">
            <path d="M25.25,50.75 C39.0571187,50.75 50.25,39.5571187 50.25,25.75 C50.25,11.9428813 39.0571187,0.75 25.25,0.75 C11.4428813,0.75 0.25,11.9428813 0.25,25.75 C0.25,39.5571187 11.4428813,50.75 25.25,50.75 Z" id="Path"></path>
            <path d="M112.75,50.75 C126.557119,50.75 137.75,39.5571187 137.75,25.75 C137.75,11.9428813 126.557119,0.75 112.75,0.75 C98.9428813,0.75 87.75,11.9428813 87.75,25.75 C87.75,39.5571187 98.9428813,50.75 112.75,50.75 Z" id="Path"></path>
            <path d="M6.5,88.25 C6.5,77.8946609 14.8956998,69.5 25.247564,69.5 L112.752436,69.5 C123.10643,69.5 131.5,77.8923841 131.5,88.25 C131.5,98.6053391 123.1043,107 112.752436,107 L25.247564,107 C14.8935703,107 6.5,98.6076159 6.5,88.25 Z" id="Path"></path>
        </g>
    </g>
</svg>