<?xml version="1.0" encoding="UTF-8"?>
<svg width="200px" height="200px" viewBox="0 0 200 200" version="1.1" xmlns="http://www.w3.org/2000/svg" xmlns:xlink="http://www.w3.org/1999/xlink">
    <!-- Generator: Sketch 41.2 (35397) - http://www.bohemiancoding.com/sketch -->
    <title>robot head</title>
    <desc>Created with Sketch.</desc>
    <defs></defs>
    <g id="robot-head" fill="#D8D8D8">
        <path d="M103.585379,37.5 L103.585379,24.4781986 C108.741582,22.937046 112.5,18.1574357 112.5,12.5 C112.5,5.59644063 106.903559,0 100,0 C93.0964406,0 87.5,5.59644063 87.5,12.5 C87.5,18.0239089 91.0830989,22.7109403 96.0518973,24.3636948 L96.0518973,37.5 L1.99566213,37.5 C0.891685486,37.5 0,38.393628 0,39.4959741 L0,198.004026 C0,199.106022 0.893488369,200 1.99566213,200 L198.004338,200 C199.108315,200 200,199.106372 200,198.004026 L200,39.4959741 C200,38.3939779 199.106512,37.5 198.004338,37.5 L103.585379,37.5 Z" id="robot-head"></path>
    </g>
</svg>